<?xml version="1.0" encoding="UTF-8" standalone="no"?>
<!-- Created with Inkscape (http://www.inkscape.org/) -->

<svg
   width="512"
   height="512"
   viewBox="0 0 512 512"
   version="1.1"
   id="svg1"
   inkscape:version="1.4.4 (dcaf3e7d9e, 2026-05-05)"
   sodipodi:docname="favicon.svg"
   xmlns:inkscape="http://www.inkscape.org/namespaces/inkscape"
   xmlns:sodipodi="http://sodipodi.sourceforge.net/DTD/sodipodi-0.dtd"
   xmlns="http://www.w3.org/2000/svg"
   xmlns:svg="http://www.w3.org/2000/svg">
  <sodipodi:namedview
     id="namedview1"
     pagecolor="#ffffff"
     bordercolor="#000000"
     borderopacity="0.25"
     inkscape:showpageshadow="2"
     inkscape:pageopacity="0.0"
     inkscape:pagecheckerboard="0"
     inkscape:deskcolor="#d1d1d1"
     inkscape:document-units="mm"
     inkscape:zoom="0.69670055"
     inkscape:cx="118.41529"
     inkscape:cy="374.62293"
     inkscape:window-width="1280"
     inkscape:window-height="987"
     inkscape:window-x="0"
     inkscape:window-y="0"
     inkscape:window-maximized="1"
     inkscape:current-layer="layer1" />
  <defs
     id="defs1">
    <inkscape:perspective
       sodipodi:type="inkscape:persp3d"
       inkscape:vp_x="-187.8215 : 101.8397 : 0"
       inkscape:vp_y="0 : 1000 : 0"
       inkscape:vp_z="509.33696 : 62.36794 : 0"
       inkscape:persp3d-origin="256 : 170.66667 : 1"
       id="perspective2" />
  </defs>
  <g
     inkscape:label="图层 1"
     inkscape:groupmode="layer"
     id="layer1">
    <path
       style="fill:#fbf39b;fill-opacity:1;stroke:#ffcf6f;stroke-width:15.4098;stroke-linecap:round;stroke-linejoin:round;stroke-dasharray:none;stroke-opacity:1"
       d="M 63.079994,38.508083 V 354.34126 L 290.04078,326.31737 444.24209,500.89964 V 185.06647 L 290.04078,10.48359 Z"
       id="path12"
       sodipodi:nodetypes="ccccccc" />
    <path
       style="fill:#fbf39b;fill-opacity:1;stroke:#ffcf6f;stroke-width:15.4098;stroke-linecap:round;stroke-linejoin:round;stroke-dasharray:none;stroke-opacity:1"
       d="M 290.04078,10.48359 V 326.31737"
       id="path13"
       sodipodi:nodetypes="cc" />
    <g
       id="text13"
       style="font-weight:bold;font-size:48px;font-family:'Adwaita Mono';-inkscape-font-specification:'Adwaita Mono Bold';fill:#a6c494;stroke-width:12.0945;stroke-linecap:round;stroke-linejoin:round"
       aria-label="Yao&#10;   News"
       transform="matrix(1.2741193,0,0,1.2741193,-61.81618,-60.246593)">
      <path
         d="m 136.44231,379.64661 v -14.496 l -8.976,-20.784 h 6.192 l 5.616,14.352 5.616,-14.352 h 6.192 l -8.976,20.784 v 14.496 z m 29.04002,0.384 q -1.056,0 -2.064,-0.144 -1.008,-0.144 -1.968,-0.48 -0.96,-0.384 -1.824,-1.008 -0.816,-0.624 -1.392,-1.488 -0.576,-0.864 -0.816,-1.872 -0.24,-1.008 -0.24,-2.064 0,-1.392 0.432,-2.736 0.432,-1.344 1.344,-2.352 0.912,-1.056 2.112,-1.728 1.248,-0.72 2.544,-1.104 1.344,-0.384 2.736,-0.528 1.392,-0.144 2.784,-0.144 h 3.84 v -1.248 q 0,-0.912 -0.384,-1.728 -0.384,-0.864 -1.104,-1.392 -0.72,-0.576 -1.632,-0.768 -0.912,-0.192 -1.824,-0.192 -0.816,0 -1.632,0.144 -0.768,0.096 -1.536,0.432 -0.72,0.336 -1.248,1.008 -0.528,0.624 -0.528,1.392 v 0.048 h -5.616 v -0.144 q 0,-1.2 0.432,-2.352 0.432,-1.2 1.2,-2.112 0.816,-0.912 1.872,-1.536 1.056,-0.624 2.208,-1.008 1.2,-0.384 2.4,-0.48 1.2,-0.144 2.448,-0.144 1.296,0 2.592,0.192 1.296,0.144 2.496,0.624 1.248,0.432 2.304,1.248 1.104,0.768 1.824,1.872 0.72,1.056 1.008,2.352 0.336,1.248 0.336,2.544 v 16.512 h -5.616 v -4.176 q -0.48,1.056 -1.248,1.968 -0.768,0.912 -1.776,1.536 -0.96,0.576 -2.16,0.816 -1.152,0.24 -2.304,0.24 z m 2.352,-4.752 q 1.008,0 1.968,-0.24 0.96,-0.288 1.728,-0.912 0.768,-0.672 1.104,-1.584 0.336,-0.96 0.336,-1.968 v -1.44 h -3.84 q -0.672,0 -1.344,0.048 -0.624,0.048 -1.296,0.192 -0.624,0.096 -1.248,0.288 -0.624,0.192 -1.2,0.576 -0.528,0.336 -0.912,0.912 -0.336,0.576 -0.336,1.248 0,0.528 0.24,1.056 0.24,0.48 0.672,0.816 0.432,0.288 0.912,0.528 0.528,0.192 1.056,0.288 0.528,0.096 1.056,0.144 0.576,0.048 1.104,0.048 z m 29.04002,4.752 q -1.44,0 -2.88,-0.24 -1.392,-0.24 -2.688,-0.816 -1.296,-0.624 -2.4,-1.584 -1.056,-1.008 -1.728,-2.256 -0.672,-1.296 -0.96,-2.688 -0.24,-1.44 -0.24,-2.88 v -4.8 q 0,-1.44 0.24,-2.832 0.288,-1.44 0.96,-2.688 0.672,-1.296 1.728,-2.256 1.104,-1.008 2.4,-1.584 1.296,-0.624 2.688,-0.864 1.44,-0.24 2.88,-0.24 1.44,0 2.832,0.24 1.44,0.24 2.736,0.864 1.296,0.576 2.352,1.584 1.104,0.96 1.776,2.256 0.672,1.248 0.912,2.688 0.288,1.392 0.288,2.832 v 4.8 q 0,1.44 -0.288,2.88 -0.24,1.392 -0.912,2.688 -0.672,1.248 -1.776,2.256 -1.056,0.96 -2.352,1.584 -1.296,0.576 -2.736,0.816 -1.392,0.24 -2.832,0.24 z m 0,-4.848 q 1.104,0 2.16,-0.336 1.056,-0.384 1.728,-1.2 0.72,-0.864 1.008,-1.92 0.288,-1.056 0.288,-2.16 v -4.8 q 0,-1.104 -0.288,-2.16 -0.288,-1.056 -1.008,-1.872 -0.672,-0.864 -1.728,-1.2 -1.056,-0.384 -2.16,-0.384 -1.104,0 -2.16,0.384 -1.056,0.336 -1.776,1.2 -0.672,0.816 -0.96,1.872 -0.288,1.056 -0.288,2.16 v 4.8 q 0,1.104 0.288,2.16 0.288,1.056 0.96,1.92 0.72,0.816 1.776,1.2 1.056,0.336 2.16,0.336 z"
         id="path1" />
      <path
         d="m 215.16237,439.64661 v -35.28 h 6.048 l 10.128,26.304 q -0.192,-1.488 -0.384,-3.024 -0.144,-1.536 -0.288,-3.024 -0.096,-1.536 -0.144,-3.072 -0.048,-1.536 -0.048,-3.072 v -14.112 h 5.712 v 35.28 h -6.048 l -10.128,-26.304 q 0.192,1.488 0.336,3.024 0.192,1.536 0.288,3.072 0.144,1.488 0.192,3.024 0.048,1.536 0.048,3.072 v 14.112 z m 39.31202,0.384 q -1.44,0 -2.88,-0.24 -1.392,-0.24 -2.688,-0.816 -1.296,-0.624 -2.4,-1.584 -1.056,-1.008 -1.728,-2.256 -0.672,-1.296 -0.96,-2.688 -0.24,-1.44 -0.24,-2.88 v -4.8 q 0,-1.44 0.24,-2.832 0.288,-1.44 0.96,-2.688 0.672,-1.296 1.728,-2.256 1.104,-1.008 2.4,-1.584 1.296,-0.624 2.688,-0.864 1.44,-0.24 2.88,-0.24 1.44,0 2.832,0.24 1.44,0.24 2.736,0.864 1.296,0.576 2.352,1.584 1.104,0.96 1.776,2.256 0.672,1.248 0.912,2.688 0.288,1.392 0.288,2.832 v 4.8 h -16.176 q 0,1.104 0.288,2.208 0.288,1.056 1.008,1.92 0.72,0.816 1.776,1.2 1.104,0.384 2.208,0.384 0.816,0 1.632,-0.096 0.864,-0.144 1.632,-0.48 0.768,-0.336 1.344,-0.96 0.576,-0.672 0.576,-1.488 h 5.616 q 0,1.2 -0.48,2.4 -0.432,1.2 -1.248,2.16 -0.816,0.912 -1.92,1.584 -1.056,0.624 -2.256,1.008 -1.152,0.336 -2.4,0.48 -1.248,0.144 -2.496,0.144 z m -5.28,-15.264 h 10.56 q 0,-1.104 -0.288,-2.16 -0.288,-1.104 -1.008,-1.92 -0.72,-0.864 -1.824,-1.248 -1.056,-0.384 -2.16,-0.384 -1.104,0 -2.208,0.384 -1.056,0.384 -1.776,1.248 -0.72,0.816 -1.008,1.92 -0.288,1.056 -0.288,2.16 z m 26.35201,14.88 -4.8,-24.96 h 5.136 l 2.16,16.992 2.88,-16.992 h 4.704 l 2.88,16.992 2.16,-16.992 h 5.136 l -4.8,24.96 h -4.752 l -2.976,-17.904 -2.976,17.904 z m 36.48002,0.384 q -1.2,0 -2.4,-0.144 -1.152,-0.096 -2.304,-0.384 -1.104,-0.336 -2.208,-0.864 -1.056,-0.528 -1.872,-1.344 -0.816,-0.864 -1.296,-1.968 -0.48,-1.152 -0.48,-2.304 v -0.288 h 5.616 v 0.048 q 0,0.48 0.288,0.96 0.288,0.432 0.72,0.72 0.432,0.24 0.912,0.432 0.48,0.144 0.96,0.24 0.528,0.048 1.008,0.096 0.528,0.048 1.056,0.048 0.528,0 1.008,0 0.528,-0.048 1.008,-0.144 0.48,-0.096 0.96,-0.24 0.528,-0.144 0.96,-0.384 0.432,-0.288 0.72,-0.72 0.288,-0.432 0.288,-0.912 0,-0.768 -0.528,-1.296 -0.528,-0.576 -1.2,-0.864 -0.624,-0.336 -1.344,-0.48 -0.72,-0.144 -1.44,-0.336 -0.72,-0.192 -1.44,-0.336 -0.672,-0.192 -1.392,-0.432 -0.672,-0.24 -1.392,-0.48 -0.672,-0.288 -1.344,-0.576 -0.624,-0.336 -1.248,-0.72 -0.624,-0.384 -1.2,-0.864 -0.528,-0.48 -1.008,-1.056 -0.48,-0.576 -0.816,-1.2 -0.336,-0.672 -0.528,-1.392 -0.144,-0.72 -0.144,-1.44 0,-1.152 0.432,-2.256 0.432,-1.104 1.2,-1.968 0.768,-0.864 1.776,-1.392 1.056,-0.576 2.16,-0.912 1.152,-0.336 2.304,-0.432 1.152,-0.144 2.304,-0.144 1.152,0 2.304,0.144 1.152,0.096 2.256,0.432 1.104,0.288 2.112,0.864 1.056,0.528 1.824,1.392 0.816,0.816 1.248,1.92 0.432,1.104 0.432,2.256 v 0.288 h -5.616 v -0.048 q 0,-0.72 -0.528,-1.248 -0.528,-0.576 -1.2,-0.816 -0.672,-0.24 -1.392,-0.336 -0.72,-0.096 -1.44,-0.096 -0.72,0 -1.44,0.096 -0.72,0.048 -1.392,0.288 -0.624,0.24 -1.2,0.768 -0.528,0.528 -0.528,1.248 0,0.672 0.432,1.2 0.432,0.528 1.008,0.864 0.624,0.288 1.248,0.48 0.672,0.144 1.344,0.336 h 0.048 q 1.248,0.288 2.448,0.624 1.2,0.336 2.352,0.816 1.2,0.432 2.256,1.104 1.104,0.624 1.968,1.536 0.864,0.912 1.392,2.064 0.528,1.152 0.528,2.4 0,1.2 -0.48,2.352 -0.432,1.104 -1.296,1.968 -0.816,0.864 -1.872,1.44 -1.056,0.528 -2.208,0.864 -1.152,0.288 -2.352,0.384 -1.152,0.144 -2.352,0.144 z"
         id="path2" />
    </g>
  </g>
</svg>
